<?xml version="1.0" standalone="no"?><!DOCTYPE svg PUBLIC "-//W3C//DTD SVG 1.1//EN" "http://www.w3.org/Graphics/SVG/1.1/DTD/svg11.dtd"><svg t="1588314329690" class="icon" viewBox="0 0 1024 1024" version="1.1" xmlns="http://www.w3.org/2000/svg" p-id="2115" xmlns:xlink="http://www.w3.org/1999/xlink" width="200" height="200"><defs><style type="text/css"></style></defs><path d="M722.859917 918.114414c-13.199627 0-25.976628-3.198855-37.974893-9.507538l-153.963581-80.950683c-5.813403-3.053546-12.356422-4.669346-18.918885-4.669346-6.559393 0-13.096273 1.614777-18.902512 4.669346l-153.987117 80.95273c-11.996219 6.307659-24.772196 9.506515-37.971823 9.506515-24.065092 0-46.88482-10.698666-62.609966-29.352515-15.616676-18.524912-21.935592-42.016953-17.794271-66.150606l29.429263-171.461093c2.246157-13.181207-2.131547-26.637684-11.712763-35.973306L113.893468 493.745241c-22.398126-21.828145-30.308283-53.869908-20.642133-83.617419 9.665127-29.746488 34.900881-51.017954 65.85794-55.512315l172.151825-25.028023c13.242606-1.927909 24.685215-10.236132 30.602995-22.224164l76.991512-156.004053c13.82896-28.0478 41.857317-45.474704 73.14388-45.474704 31.286564 0 59.315944 17.426905 73.147974 45.480844l76.987419 156.000983c5.929036 11.980869 17.374716 20.295232 30.607088 22.222117l172.150802 25.028023c30.953989 4.494361 56.18872 25.764803 65.853847 55.512315 9.66615 29.748534 1.75497 61.789275-20.645203 83.619466l-124.551714 121.425514c-9.597589 9.351995-13.976316 22.801309-11.716856 35.984562l29.42824 171.454954c4.14132 24.130583-2.177596 47.622624-17.794271 66.147536C769.744737 907.413702 746.923986 918.113391 722.859917 918.114414zM512.002558 782.053576c13.168927 0 26.295899 3.239787 37.963637 9.369392l153.969721 80.953753c6.064113 3.188622 12.4301 4.804423 18.922978 4.804423 11.793604 0 23.50125-5.53404 31.315216-14.804171 7.706519-9.143241 10.812253-20.805862 8.747221-32.843012l-29.429263-171.46007c-4.536316-26.470885 4.245697-53.465702 23.493064-72.215742l124.547621-121.423467c11.33107-11.04352 15.176654-26.615171 10.288321-41.659819-4.88731-15.042601-17.153682-25.381064-32.810267-27.653827l-172.160012-25.029046c-26.550703-3.866051-49.506531-20.535709-61.410652-44.594661l-76.999698-156.025543c-6.997368-14.189164-20.617573-22.657023-36.439934-22.657023-15.821337 0-29.441543 8.466835-36.434817 22.650883l-76.995605 156.013263c-11.881608 24.067138-34.839483 40.742936-61.413721 44.61308l-172.161035 25.029046c-15.660678 2.273786-27.927049 12.611226-32.81436 27.653827-4.888334 15.044648-1.043772 30.616298 10.285251 41.656749l124.55683 121.431653c19.21769 18.723434 28.001751 45.711088 23.491017 72.187089l-29.433356 171.484629c-2.066055 12.038174 1.040702 23.701818 8.747221 32.844036 7.812943 9.269108 19.519566 14.802124 31.314193 14.802124 6.493901 0 12.860912-1.616824 18.924002-4.804423l153.98507-80.951707C485.704612 785.29541 498.830561 782.053576 512.002558 782.053576z" p-id="2116"></path></svg>